<?xml version="1.0" encoding="UTF-8"?>
<svg id="_레이어_2" data-name="레이어 2" xmlns="http://www.w3.org/2000/svg" viewBox="0 0 628.05 646.24">
  <defs>
    <style>
      .cls-1 {
        fill: #3c68a1;
      }

      .cls-1, .cls-2, .cls-3, .cls-4 {
        stroke-width: 0px;
      }

      .cls-2 {
        fill: #ff385e;
      }

      .cls-3 {
        fill: #ffd43e;
      }

      .cls-4 {
        fill: #060645;
      }
    </style>
  </defs>
  <g id="_레이어_1-2" data-name="레이어 1">
    <path class="cls-3" d="M510.84,94.55C447.28,1.1,325.8-.04,319.28,0,222.86.58,120.11,61.9,92.02,158.89c-15.32,52.89-3.76,100.24,4.34,124.69,0,0,.16.65.32,1.26,17.96,69.75,105.1,158.3,105.1,158.3,32.02,32.54,73.56,80.45,117.5,149.85,32.06-67.27,68.57-112.39,96.39-141.41,51.63-53.86,94.35-74.2,118.26-136.96,14.19-37.26,14.44-70.28,14.43-85.4-.02-20.62-.84-80.75-37.51-134.67Z"/>
    <path class="cls-2" d="M622.63,370.24c-12.37-40.59-56.44-110.96-138.1-115.82-80.06-4.76-137.52,56.95-154.87,91.94-22.08,44.52-9.83,85.69-9.83,85.69.08.27.14.47.24.79,10.01,33.59,26.3,56.97,36.69,71.64,41.48,58.56,105.51,105.63,127.78,121.38,16.04-17.44,39.38-42.98,67.39-74.2,40.1-44.71,44.67-50.8,49.19-58.07,6.91-11.1,39.69-63.73,21.52-123.36Z"/>
    <path class="cls-1" d="M344.4,353.39c0-95.1-77.1-172.2-172.2-172.2S0,258.29,0,353.39c0,19.83,7.37,49.65,7.74,51.19,10.01,42.05,26.3,71.33,36.69,89.7,41.48,73.32,105.51,132.26,127.78,151.97,38.72-36.8,67.18-71.19,86.87-97.36,33.96-45.15,62.95-84.51,77.59-144.28,5.17-21.1,7.74-34.06,7.74-51.21Z"/>
    <ellipse class="cls-4" cx="162.47" cy="404.44" rx="13.64" ry="24.71"/>
    <ellipse class="cls-4" cx="86.39" cy="400.14" rx="13.64" ry="24.71"/>
    <ellipse class="cls-4" cx="355.16" cy="126" rx="13.64" ry="24.71"/>
    <ellipse class="cls-4" cx="306.36" cy="126" rx="13.64" ry="24.71"/>
    <ellipse class="cls-4" cx="564.15" cy="352.87" rx="13.64" ry="24.71"/>
    <ellipse class="cls-4" cx="515.35" cy="352.87" rx="13.64" ry="24.71"/>
  </g>
</svg>